<svg xmlns="http://www.w3.org/2000/svg" height="800" width="1200" viewBox="-30.92085 -48.71175 267.9807 292.2705"><g fill-rule="evenodd"><path d="M2.844 183.321V168.09c0-.997-.073-1.7-.211-2.111a2.377 2.377 0 00-.754-1.067 1.988 1.988 0 00-.496-.281 3.924 3.924 0 00-.697-.2c-.285-.047-.468-.105-.558-.18a.41.41 0 01-.128-.318c.01-.205.055-.346.14-.41.083-.071.245-.112.496-.124.044 0 .195.014.457.036a83.8 83.8 0 005.705.188c2.432 0 4.852-.094 7.272-.276.446-.036.714-.053.803-.053.273 0 .446.053.53.147.083.1.123.287.123.563v.222a.242.242 0 01-.018.07.598.598 0 00-.018.17l-.228 2.885c-.023.288-.061.48-.112.575-.056.099-.15.151-.279.164a.38.38 0 01-.329-.164c-.072-.106-.111-.264-.111-.47 0-.047.005-.117.017-.204a1.6 1.6 0 00.018-.194c0-.856-.29-1.46-.876-1.8-.58-.346-1.65-.516-3.212-.516H8.041c-1.098 0-1.806.1-2.113.293-.312.194-.468.563-.468 1.114v7.246c0 .634.067 1.014.206 1.144.133.134.446.199.937.199h2.75c1.02 0 1.767-.088 2.235-.258a2.13 2.13 0 001.099-.874c.128-.199.256-.515.379-.956.128-.439.295-.662.502-.662.117 0 .212.071.284.205.073.141.106.329.106.57 0 .058-.023.44-.067 1.154a37.47 37.47 0 00-.06 2.087c0 .645.044 1.325.127 2.046.023.194.034.316.034.376a.91.91 0 01-.14.521c-.089.147-.2.217-.318.217-.273 0-.446-.282-.524-.838-.055-.393-.111-.686-.178-.88a1.74 1.74 0 00-.982-1.037c-.468-.2-1.216-.3-2.236-.3H6.457c-.412 0-.686.07-.808.206-.128.14-.19.452-.19.944v7.176c0 .879.185 1.47.547 1.77.368.299 1.099.445 2.197.445 1.35 0 2.643-.152 3.881-.456 1.238-.3 2.242-.71 3.017-1.226a5.122 5.122 0 001.216-1.214c.374-.51.63-.761.759-.761.089 0 .161.052.211.163a.95.95 0 01.084.44c0 .328-.106.762-.312 1.301a6.269 6.269 0 01-.748 1.414c-.513.662-1.043 1.131-1.578 1.406-.54.276-1.227.41-2.052.41-.218 0-.981-.034-2.297-.099a66.855 66.855 0 00-3.586-.105c-1.93 0-3.753.07-5.47.205a7.256 7.256 0 01-.463.035c-.074 0-.151-.04-.235-.129a.403.403 0 01-.122-.282.58.58 0 01.116-.368c.073-.1.24-.212.502-.335l.067-.035c.402-.182.697-.381.881-.604a2.52 2.52 0 00.597-1.072c.117-.405.172-1.08.172-2.017zm18.102.808v-7.416c0-.632-.117-1.084-.357-1.36-.24-.275-.635-.41-1.182-.41-.323 0-.552-.035-.675-.106a.32.32 0 01-.19-.304c0-.159.045-.276.14-.352.095-.077.285-.123.58-.147a.266.266 0 00.1-.018 6.98 6.98 0 00.474-.118 18.214 18.214 0 001.986-.873c.658-.334 1.025-.504 1.104-.504.14 0 .24.052.29.152.055.105.083.323.083.65v2.082c.882-.85 1.73-1.478 2.543-1.888.81-.416 1.601-.621 2.376-.621.78 0 1.523.182 2.22.55a4.648 4.648 0 011.718 1.531c.39.557.668 1.23.83 2.017.161.786.246 2.034.246 3.752v3.417c0 .962.066 1.613.206 1.941.134.334.385.615.742.844.133.082.279.14.44.182.168.04.351.058.558.058.262 0 .445.042.546.118.107.081.157.223.157.416a.363.363 0 01-.14.299c-.09.076-.212.111-.368.111-.067 0-.43-.03-1.093-.088a24.062 24.062 0 00-1.88-.082c-.859 0-1.678.053-2.448.153-.111.01-.178.018-.2.018a.346.346 0 01-.256-.111.358.358 0 01-.118-.264c0-.188.145-.38.44-.598.296-.211.497-.387.603-.54.173-.228.296-.51.368-.849.072-.334.106-.885.106-1.642v-3.945c0-2.134-.285-3.624-.859-4.467-.569-.85-1.528-1.273-2.866-1.273-1.221 0-2.17.317-2.85.944-.68.634-1.02 1.513-1.02 2.644v6.132c0 .944.078 1.59.228 1.941.15.358.44.651.865.88.122.07.262.117.429.152.162.034.346.052.552.052.34.024.558.077.658.153.095.082.145.205.145.381 0 .123-.05.222-.145.299a.63.63 0 01-.396.111c-.073 0-.463-.03-1.166-.088a26.863 26.863 0 00-1.99-.082c-.882 0-1.734.053-2.565.153-.129.01-.212.018-.246.018a.446.446 0 01-.295-.11.35.35 0 01-.129-.265c0-.117.034-.217.1-.305.062-.082.185-.17.358-.264.033-.023.089-.058.161-.105.24-.182.413-.334.507-.463.218-.276.368-.575.452-.909.084-.334.123-.855.123-1.583zm18.202 0v-7.504c0-.563-.128-.984-.39-1.26-.262-.281-.663-.422-1.21-.422-.318 0-.536-.03-.652-.094a.331.331 0 01-.185-.316c0-.14.051-.247.14-.317.095-.076.318-.147.663-.217.067-.024.151-.047.262-.07a7.941 7.941 0 001.273-.428c.328-.146.73-.358 1.21-.621.479-.265.78-.393.897-.393.134 0 .223.046.274.146.044.094.072.328.072.692v2.321c.88-1.113 1.555-1.846 2.019-2.21.462-.357.914-.539 1.36-.539.513 0 .999.188 1.456.569.457.375.686.744.686 1.096 0 .275-.14.586-.424.926-.285.346-.524.516-.72.516-.1 0-.373-.14-.83-.428-.458-.288-.91-.428-1.344-.428-.575 0-1.094.276-1.551.833-.457.556-.685 1.173-.685 1.847v5.803c0 1.172.083 1.958.245 2.375.162.41.468.738.915.979.127.07.273.117.428.152.162.035.341.053.553.053.335.024.552.076.652.152.095.082.145.206.145.381 0 .111-.055.211-.161.293a.701.701 0 01-.413.118c-.073 0-.469-.03-1.171-.088a27.265 27.265 0 00-1.996-.082c-.904 0-1.774.052-2.616.152-.129.01-.212.019-.246.019a.369.369 0 01-.273-.112.36.36 0 01-.117-.263.41.41 0 01.084-.252c.05-.077.179-.182.373-.317.196-.117.34-.211.436-.293.094-.082.178-.17.25-.276.212-.276.357-.603.452-.985.095-.387.14-.885.14-1.507zm11.11-16.573c0-.334.189-.733.562-1.202.374-.469.676-.704.904-.704.212 0 .501.23.876.681.373.451.563.827.563 1.125 0 .282-.18.658-.541 1.12-.357.463-.68.698-.96.698-.283 0-.59-.2-.914-.592-.33-.393-.49-.768-.49-1.126zm.16 16.58v-6.344c0-1.19-.1-1.958-.3-2.298-.201-.346-.58-.516-1.137-.516-.318 0-.553-.035-.704-.106-.15-.064-.228-.17-.228-.304 0-.23.267-.422.802-.569h.028c.252-.047.502-.11.748-.188a7.05 7.05 0 00.759-.31c.317-.135.713-.34 1.193-.61.48-.27.797-.404.948-.404.14 0 .24.035.295.106.056.064.079.222.079.463 0 .046-.006.222-.013.533a162.103 162.103 0 00-.083 5.218v5.358c0 .92.078 1.559.234 1.917.161.363.457.662.892.903.128.07.274.117.435.152.156.035.34.053.547.053.334.024.552.076.652.152.095.082.145.206.145.381 0 .111-.056.211-.162.293a.704.704 0 01-.412.118c-.073 0-.469-.03-1.171-.088a27.265 27.265 0 00-1.996-.082c-.904 0-1.774.052-2.617.152-.128.01-.211.019-.245.019a.366.366 0 01-.273-.112.36.36 0 01-.117-.263c0-.118.033-.217.1-.306.061-.081.184-.17.357-.263.033-.024.09-.059.162-.105.24-.182.418-.335.524-.464.206-.276.351-.575.435-.908.084-.335.123-.856.123-1.578zm17.841-7.651c0 .228-.018.387-.056.475-.039.088-.095.129-.172.129-.112 0-.296-.194-.558-.575a5.856 5.856 0 00-.715-.902 5.195 5.195 0 00-1.65-1.109 4.9 4.9 0 00-1.93-.404c-1.22 0-2.169.492-2.855 1.483-.685.99-1.031 2.363-1.031 4.116 0 2.086.507 3.757 1.517 5.024 1.015 1.266 2.359 1.899 4.037 1.899a5.98 5.98 0 003.34-1.008c1.032-.668 1.567-1.003 1.612-1.003.04 0 .073.019.095.059a.334.334 0 01.033.164c0 .17-.117.41-.356.72-.24.311-.569.64-.982.998-.775.674-1.572 1.166-2.392 1.477-.826.31-1.74.463-2.755.463-1.896 0-3.464-.71-4.696-2.128-1.238-1.418-1.857-3.213-1.857-5.376 0-2.28.708-4.197 2.125-5.757 1.416-1.553 3.156-2.333 5.226-2.333.674 0 1.31.059 1.906.17.592.118 1.071.27 1.445.462.262.154.44.306.53.458.094.153.14.44.14.85v1.648zm5.209 7.644V167.28c0-1.178-.1-1.94-.301-2.291-.202-.347-.57-.523-1.105-.523H71.8c-.195 0-.351-.04-.462-.123a.35.35 0 01-.173-.304.39.39 0 01.155-.329c.101-.082.358-.158.759-.24.045-.013.117-.03.212-.053.491-.135.881-.27 1.177-.393a8.774 8.774 0 001.244-.673c.445-.288.736-.429.864-.429.14 0 .256.065.345.188.084.128.129.3.129.516 0 .035-.013.17-.034.41a67.412 67.412 0 00-.194 5.223v7.147c.88-.85 1.728-1.477 2.542-1.888.809-.416 1.6-.621 2.376-.621.78 0 1.522.182 2.22.55a4.647 4.647 0 011.717 1.531c.401.569.686 1.261.86 2.076.166.814.25 2.046.25 3.693v3.418c0 .997.067 1.659.195 1.975.134.323.374.593.72.81.133.081.278.14.434.181.156.04.346.059.564.059.273 0 .462.041.574.117.106.082.162.223.162.416a.363.363 0 01-.14.3.562.562 0 01-.368.11c-.067 0-.43-.029-1.093-.087a24.027 24.027 0 00-1.88-.082c-.858 0-1.683.052-2.47.152-.094.01-.155.019-.178.019a.39.39 0 01-.268-.112.408.408 0 01-.139-.263c0-.176.15-.37.457-.587.307-.217.513-.398.619-.551a2.27 2.27 0 00.351-.85c.073-.334.107-.885.107-1.642v-3.945c0-2.122-.285-3.605-.86-4.461-.569-.85-1.533-1.278-2.883-1.278-1.215 0-2.17.316-2.85.943-.68.634-1.02 1.513-1.02 2.645v6.132c0 .92.078 1.554.234 1.917.162.363.458.662.893.903.117.07.262.117.424.152.161.035.35.053.557.053.335.024.553.076.653.152.095.082.144.206.144.381 0 .124-.05.223-.144.3a.635.635 0 01-.396.11c-.073 0-.469-.029-1.183-.087a27.515 27.515 0 00-2.002-.082c-.88 0-1.734.052-2.565.152-.128.01-.212.019-.246.019a.366.366 0 01-.272-.112.358.358 0 01-.118-.263.49.49 0 01.1-.305c.062-.082.185-.17.358-.264l.194-.153c.208-.163.358-.299.442-.416a2.55 2.55 0 00.446-.908c.083-.335.128-.856.128-1.583zm18.007-16.573c0-.334.19-.733.563-1.202.374-.469.675-.704.904-.704.212 0 .501.23.875.681.374.451.564.827.564 1.125 0 .282-.18.658-.542 1.12-.356.463-.68.698-.959.698-.284 0-.591-.2-.914-.592-.33-.393-.49-.768-.49-1.126zm.162 16.58v-6.344c0-1.19-.1-1.958-.301-2.298-.201-.346-.58-.516-1.138-.516-.318 0-.552-.035-.703-.106-.15-.064-.229-.17-.229-.304 0-.23.268-.422.803-.569h.028a6.62 6.62 0 00.748-.188c.245-.082.496-.187.758-.31.318-.135.714-.34 1.194-.61.48-.27.797-.404.947-.404.14 0 .241.035.296.106.056.064.079.222.079.463 0 .046-.006.222-.013.533a161.382 161.382 0 00-.084 5.218v5.358c0 .92.078 1.559.235 1.917.161.363.457.662.892.903.128.07.274.117.435.152.156.035.34.053.547.053.334.024.552.076.652.152.095.082.144.206.144.381 0 .111-.055.211-.161.293a.7.7 0 01-.413.118c-.072 0-.468-.03-1.17-.088a27.268 27.268 0 00-1.997-.082c-.903 0-1.773.052-2.616.152-.128.01-.212.019-.245.019a.366.366 0 01-.273-.112.358.358 0 01-.117-.263c0-.118.033-.217.1-.306.061-.081.184-.17.357-.263.033-.024.09-.059.162-.105.24-.182.418-.335.523-.464a2.52 2.52 0 00.436-.908c.083-.335.122-.856.122-1.578zm8.331-.006v-7.416c0-.633-.117-1.085-.356-1.36-.24-.275-.636-.41-1.183-.41-.323 0-.551-.036-.674-.106a.32.32 0 01-.19-.305c0-.158.044-.276.14-.351.094-.077.284-.124.58-.147a.27.27 0 00.1-.019 6.98 6.98 0 00.474-.118 18.218 18.218 0 001.985-.873c.658-.334 1.026-.504 1.104-.504.14 0 .24.053.29.153.056.105.084.322.084.65v2.082c.881-.85 1.729-1.478 2.543-1.888.808-.417 1.6-.622 2.376-.622.78 0 1.522.182 2.219.55a4.641 4.641 0 011.717 1.532c.39.556.67 1.23.831 2.016.162.786.246 2.034.246 3.753v3.417c0 .962.067 1.612.206 1.94.134.334.385.616.742.844.134.082.279.141.44.182a2.4 2.4 0 00.558.059c.263 0 .446.041.547.117.106.082.156.223.156.416a.363.363 0 01-.14.3.553.553 0 01-.368.11c-.066 0-.43-.029-1.093-.087a24.02 24.02 0 00-1.879-.082c-.86 0-1.679.052-2.448.152-.111.01-.18.019-.2.019a.348.348 0 01-.258-.111.36.36 0 01-.117-.264c0-.188.145-.381.441-.598.295-.211.497-.387.602-.54a2.12 2.12 0 00.369-.85c.072-.334.105-.885.105-1.641v-3.946c0-2.134-.284-3.623-.859-4.467-.568-.85-1.528-1.272-2.866-1.272-1.221 0-2.17.316-2.85.944-.68.633-1.02 1.512-1.02 2.644v6.132c0 .944.078 1.59.228 1.94.15.358.441.652.865.88.123.07.262.117.429.152.162.035.346.053.552.053.34.024.558.077.658.153.095.082.145.205.145.38a.37.37 0 01-.145.3.631.631 0 01-.395.11c-.073 0-.463-.029-1.166-.087a26.857 26.857 0 00-1.99-.082c-.882 0-1.735.052-2.566.152-.129.011-.212.019-.246.019a.446.446 0 01-.295-.111.35.35 0 01-.128-.264c0-.117.033-.217.1-.305.061-.082.184-.17.357-.264.033-.024.09-.059.162-.105.24-.182.412-.334.507-.464.218-.276.368-.575.452-.908.083-.334.122-.856.122-1.583zm19.084 4.432c-.524.205-.904.522-1.143.944-.24.422-.357.985-.357 1.682 0 .933.34 1.625 1.015 2.088.675.463 1.69.697 3.05.697 1.723 0 3.073-.3 4.049-.89.98-.598 1.472-1.414 1.472-2.445 0-.557-.14-.962-.423-1.203-.285-.24-.815-.38-1.584-.427-.363-.013-.91-.03-1.651-.053-1.975-.047-3.446-.176-4.428-.393zm-.034-11.074c0 1.6.285 2.826.86 3.676.568.85 1.394 1.272 2.475 1.272 1.043 0 1.84-.346 2.393-1.032.552-.686.825-1.676.825-2.972 0-1.536-.301-2.75-.898-3.652-.602-.897-1.405-1.35-2.42-1.35-1.004 0-1.79.365-2.37 1.086-.574.72-.865 1.712-.865 2.972zm-.73 10.646a2.045 2.045 0 01-.892-.885 2.764 2.764 0 01-.318-1.33c0-.54.15-1.097.457-1.672.301-.58.736-1.143 1.304-1.693a4.6 4.6 0 01-1.544-1.818c-.351-.745-.53-1.607-.53-2.58 0-1.56.52-2.867 1.55-3.916 1.038-1.055 2.304-1.583 3.804-1.583 1.038 0 2.03.234 2.99.704.958.468 1.505.703 1.633.703.296 0 .586-.093.875-.281.285-.188.519-.434.692-.733.067-.123.117-.24.157-.352.039-.105.06-.21.072-.317l.015-.034c.068-.287.185-.429.363-.429.128 0 .234.065.306.187.079.13.118.3.118.517 0 .862-.15 1.566-.457 2.116-.307.551-.781.985-1.434 1.308.118.27.206.55.268.838.06.287.089.592.089.909 0 1.665-.53 2.995-1.583 3.998-1.055 1.002-2.466 1.5-4.233 1.5-.424 0-.87-.04-1.339-.128-.468-.082-.725-.13-.764-.13-.362 0-.697.2-1.01.593a2.102 2.102 0 00-.462 1.313c0 .651.335 1.102.999 1.348.663.247 2.426.37 5.292.37 1.444 0 2.476.246 3.095.738.613.493.92 1.308.92 2.457 0 1.565-.63 2.79-1.886 3.67-1.26.885-3.01 1.325-5.253 1.325-1.74 0-3.128-.323-4.165-.967-1.032-.65-1.55-1.513-1.55-2.586 0-.68.194-1.273.58-1.776.384-.51.998-.974 1.84-1.384m23.685-4.813V168.09c0-1.055-.072-1.77-.223-2.146-.145-.38-.396-.721-.759-1.032a2.18 2.18 0 00-.53-.328 2.35 2.35 0 00-.646-.153.339.339 0 00-.078-.035c-.34-.093-.508-.246-.508-.463 0-.205.04-.346.123-.41.084-.071.25-.112.513-.124.111 0 .519.036 1.227.112.708.076 1.355.112 1.947.112 1.031 0 2.068-.065 3.1-.188.2-.024.312-.036.346-.036.15 0 .267.042.351.124.084.076.123.193.123.34 0 .252-.235.463-.703.621l-.033.016c-.056.024-.123.053-.212.088-.329.135-.563.27-.703.41a2.086 2.086 0 00-.597.998c-.117.398-.173 1.096-.173 2.092v16.345c0 .862.18 1.442.541 1.753.357.311 1.049.463 2.075.463 1.383 0 2.705-.152 3.96-.457 1.26-.3 2.27-.698 3.033-1.19a5.754 5.754 0 001.26-1.237c.391-.516.653-.774.781-.774.09 0 .162.053.212.164a.947.947 0 01.084.44c0 .317-.106.762-.318 1.33a6.422 6.422 0 01-.81 1.519c-.456.61-.974 1.044-1.543 1.313-.575.27-1.3.404-2.181.404-.273 0-1.098-.035-2.476-.105a80.572 80.572 0 00-3.703-.1c-1.818 0-3.524.065-5.114.188a6.735 6.735 0 01-.374.016c-.089 0-.167-.04-.24-.128a.433.433 0 01-.106-.282c0-.153.04-.27.124-.369.083-.1.256-.217.53-.352a.63.63 0 01.083-.035c.368-.194.635-.387.798-.587.295-.316.507-.691.63-1.113.128-.423.19-1.085.19-1.976zm17.422-15.765c0-.334.19-.733.563-1.202.373-.469.675-.704.903-.704.213 0 .502.23.876.681.374.451.563.827.563 1.125 0 .282-.179.658-.54 1.12-.358.463-.68.698-.96.698-.284 0-.59-.2-.914-.592-.33-.393-.491-.768-.491-1.126zm.161 16.58v-6.344c0-1.19-.1-1.958-.3-2.298-.201-.346-.58-.516-1.138-.516-.318 0-.552-.035-.703-.106-.15-.064-.228-.17-.228-.304 0-.23.267-.422.803-.569h.027c.251-.047.502-.11.748-.188.245-.082.496-.187.758-.31.318-.135.714-.34 1.194-.61.48-.27.797-.404.948-.404.139 0 .24.035.295.106.056.064.078.222.078.463 0 .046-.005.222-.013.533a162.103 162.103 0 00-.083 5.218v5.358c0 .92.078 1.559.234 1.917.162.363.458.662.893.903.128.07.273.117.435.152.156.035.34.053.546.053.334.024.552.076.653.152.094.082.145.206.145.381 0 .111-.056.211-.162.293a.705.705 0 01-.413.118c-.073 0-.468-.03-1.17-.088a27.265 27.265 0 00-1.997-.082c-.904 0-1.774.052-2.616.152-.128.01-.211.019-.245.019a.367.367 0 01-.274-.112.36.36 0 01-.117-.263c0-.118.034-.217.1-.306.062-.081.185-.17.358-.263.033-.024.089-.059.161-.105.24-.182.418-.335.525-.464.206-.276.35-.575.434-.908.084-.335.123-.856.123-1.578zm12.61 3.634l-4.54-11.426c-.24-.58-.468-1.02-.68-1.318a2.25 2.25 0 00-.742-.687 2.6 2.6 0 00-.407-.175c-.318-.1-.474-.259-.474-.464 0-.123.05-.223.145-.299.1-.076.234-.111.412-.111.107 0 .319.024.625.065.313.046.57.07.776.07.668 0 1.422-.024 2.264-.07a53.368 53.368 0 011.528-.065c.24 0 .396.024.463.076.072.053.105.152.105.299 0 .252-.295.428-.897.516-.057.01-.084.016-.095.016-.262.059-.463.17-.608.328a.854.854 0 00-.212.586c0 .077.01.159.027.24.018.077.04.177.074.289l3.446 8.934a.711.711 0 00.1.17c.018.024.05.04.095.053.034 0 .072-.019.123-.059a.46.46 0 00.122-.164l2.532-5.775c.284-.638.496-1.231.641-1.776.14-.546.212-1.05.212-1.518 0-.399-.078-.692-.223-.874-.145-.188-.435-.328-.859-.434-.06-.01-.155-.03-.278-.053-.436-.052-.653-.205-.653-.445 0-.147.04-.253.117-.316.072-.065.2-.094.374-.094.134 0 .452.023.965.064.513.047.964.07 1.355.07.35 0 .752-.024 1.21-.07.458-.041.747-.064.864-.064.179 0 .307.04.402.122.095.077.14.206.14.376-.013.194-.14.322-.391.375-.145.035-.257.07-.346.106a1.15 1.15 0 00-.49.363c-.14.17-.324.498-.553.98l-5.459 12.176c-.112.252-.207.416-.296.504a.412.412 0 01-.307.129c-.245 0-.43-.17-.557-.516a.64.64 0 00-.05-.135zm12.52-9.55h4.589c1.11 0 1.807-.053 2.08-.152.28-.106.418-.299.418-.586 0-.974-.363-1.836-1.093-2.58s-1.59-1.114-2.582-1.114c-.937 0-1.706.393-2.314 1.178-.602.786-.97 1.87-1.099 3.254zm-.067.909c0 2.28.49 4.098 1.471 5.458.977 1.354 2.298 2.034 3.95 2.034 1.243 0 2.509-.463 3.791-1.39.346-.24.569-.363.652-.363.101 0 .163.013.19.041.028.03.04.094.04.2 0 .135-.057.299-.174.48-.111.182-.3.4-.563.65-.791.769-1.628 1.338-2.498 1.701-.87.37-1.818.551-2.845.551-1.784 0-3.295-.721-4.533-2.157-1.233-1.437-1.852-3.195-1.852-5.276 0-2.222.625-4.14 1.88-5.745 1.25-1.613 2.732-2.416 4.444-2.416.987 0 1.88.205 2.66.615.787.417 1.478 1.033 2.075 1.858a6.3 6.3 0 01.898 1.578c.206.54.312 1.043.312 1.513 0 .264-.055.439-.162.533-.11.088-.43.135-.964.135h-8.772zm12.648 7.351l-.034-2.919c0-.252.034-.44.106-.557a.344.344 0 01.318-.182c.206 0 .357.264.446.792.072.41.15.744.229.996.3.927.73 1.624 1.288 2.099.557.475 1.232.715 2.024.715.842 0 1.528-.27 2.069-.814.54-.546.809-1.244.809-2.106 0-1.043-1.01-2.05-3.023-3.036a29.67 29.67 0 01-.88-.445c-1.105-.54-1.886-1.115-2.355-1.73-.468-.61-.702-1.36-.702-2.24 0-1.248.396-2.238 1.193-2.978.792-.739 1.874-1.107 3.235-1.107 1.065 0 1.89.11 2.476.34.58.228.875.55.887.961l.033 1.975c0 .224-.023.376-.067.47-.044.087-.117.134-.228.134-.173 0-.307-.181-.408-.539-.1-.364-.195-.615-.295-.768a3.893 3.893 0 00-1.322-1.26 3.166 3.166 0 00-1.617-.458c-.697 0-1.254.188-1.673.57-.418.374-.63.872-.63 1.494 0 1.108 1.283 2.24 3.842 3.4.184.076.324.14.424.188.937.433 1.623.973 2.064 1.612.44.645.664 1.43.664 2.374 0 1.442-.453 2.633-1.356 3.576-.904.944-2.046 1.419-3.435 1.419-.815 0-1.73-.264-2.744-.791-.273-.135-.452-.217-.541-.24l-.228-.053c-.38-.076-.57-.375-.57-.892" fill="#333335"/><path d="M51.735 141.08h102.812V0H51.735z" fill="#fff"/><path d="M96.894 74.613c0-2.03.49-6.161 1.027-6.605.49-.42-.982 6.442-1.027 6.605zm11.29-1.26a.336.336 0 01-.157-.654c.469-.07.558.56.156.654zm14.926-3.337c.09-1.447-.446-.7-1.963-.118.401-.676 2.32-2.1 2.9-1.33.179.397-.178 1.377-.937 1.448zm9.75-.397c-1.606-.444.401-4.994 1.807-4.27.625.535-.513.932.335 1.306.714.234.96 0 1.272-.257-.201 1.33-1.763 3.688-3.414 3.221zm-10.71-5.298c1.027-7.818 2.923-6.535 0 0zM79.224 75.336l.423-3.477 3.48-.747-.468 3.477zm75.256-9.848c-.335-1.33-1.986-1.75-3.95 0-1.115 1.003-1.495 2.473-2.543.98-.424-1.003 1.428-5.648 3.012-6.908l-1.25-2.124-3.725.957c0-.234-.023-.56-.045-.747l-3.235.747c-.625 4.107-1.629 10.758-3.302 11.32-1.384.373.96-6.373 1.339-9.686l-3.972.817c.29.91.29 1.073.089 1.633-1.584-1.19-4.328-.933-6.76 4.27-.847 1.798-.78 3.595-.937 5.58-2.677 2.846-4.061 1.33-5.444-.211 2.52-1.47 4.596-3.968 4.574-6.698-.023-2.031-3.347-2.031-4.886-.747 1.182-2.24 2.209-4.504 2.23-6.768 0-1.354.157-5.065-1.673-5.32-2.342-.304-4.775 16.64-4.775 16.64l-2.208 1.072c-.112-1.726.736-3.874 2.075-4.597l-3.391-.14c-1.406 1.213-.625 5.414-5.757 6.861-.335-.91-.914-1.867-1.985-1.844-3.08.537-2.589 4.434-.29 4.808.29 1.517-1.272 3.688-2.254 3.314-1.63-1.283-1.116-5.438.312-6.955.737-.536.76-1.353-.2-1.213-2.365.397-4.33 4.877-4.24 7.888-2.789 3.618-3.703 1.213-3.993-.606 1.249-2.194 4.708-12.93 2.655-16.127-.224-.374-.893-.444-1.16-.07-3.815 4.76-4.196 12.112-4.15 17.714-.425 1.143-1.92 3.243-3.169 3.243-1.182 0 .424-4.27 1.362-5.018l-1.138-2.707-3.213.724.066-.63-3.792.653c.29 2.754-1.027 10.992-2.812 10.992-.959 0 .157-3.757.825-9.778l-4.595 1.424.691.84-.825 7.351c-.402.933-1.16 1.4-2.276 1.54-3.904.607-4.574-8.588-6.56-9.404 3.08-3.128 6.337-8.472 9.215-11.997 6.627-6.488 9.862-6.16 9.996-3.57.111 2.567 3.257.21 3.57-.864 1.271-4.995-3.838-6.885-7.051-5.67-11.981 4.55-12.852 21.073-21.196 21.913l2.097-14.33h-2.298c-1.271 2.008-3.926 4.155-6.56 2.568l-1.472 7.025c2.388 0 5.132-1.587 6.716-3.338-1.517 6.581-1.517 20.632-8.79 21.168l-1.697 6.745V0H154.48v65.487z" fill="#333335"/><path d="M51.735 141.08v-40.818c8.658-2.334 9.46-6.675 11.825-19.02 1.518 0 2.79-.468 3.749-1.238 2.008 2.567 1.607 7.024 3.235 10.082 1.874 4.69 5.667 3.268 8.121-.07 1.116 2.007 3.704.514 4.708-.653 2.187-2.474 4.128-7.515 4.618-11.016.558-.21 1.139-.234 1.763-.42-2.008 3.22-3.926 11.809.825 9.848 1.942-.956 3.102-2.986 4.53-4.807 1.495 5.508 5.667.747 6.805-1.68.446 1.494 1.673 2.17 2.945 2.1 3.124-.513 5.065-3.99 5.243-8.892 1.049-.443 2.388-.863 3.548-1.587 0 1.377.379 3.478-.625 4.271-1.517 1.004.023-1.4-1.495-1.75-1.049-.117-1.919 3.128-1.294 4.06.535.957 2.052 1.448 3.236 1.237 3.613-.7 4.417-5.344 3.837-8.4l1.472-.561c-.334 2.684-.67 5.134-.736 7.585l3.526-1.494c-.157-.537-.625-1.75-.403-2.403 2.009 2.427 6.872 1.913 8.657-1.168 1.227 1.727 4.061 1.797 6.56-1.143.825 1.05 1.83 1.12 2.633.653 2.365-1.353 4.417-6.348 5.243-11.786l2.164-.584c-1.339 3.152-2.9 7.212-1.606 9.01 2.03 2.216 5.8 0 6.537-2.334.2-.677.714-1.4 1.16-1.308 1.495.28.09 2.334-2.276 4.132-1.985 1.493-5.578 3.034-8.344 4.177l-75.078 26.652-4.529 12.463 79.45-35.684c7.029-3.338 10.844-5.905 12.808-9.709v72.255z" fill="#333335"/></g></svg>